# xmcd
#
# Track frame offsets:
#	150
#	10155
#	19039
#	29501
#	41674
#	50536
#	60505
#	71556
#	81394
#	93467
#	102970
#	113336
#	124379
#	134724
#	146027
#	155515
#	165446
#	175613
#	186923
#	195416
#
# Disc length: 2736 seconds
#
# Revision: 0
# Processed by: cddbd v1.5.2PL0 Copyright (c) Steve Scherf et al.
# Submitted via: EZCDAudioConverter 2.0.3.1
#
DISCID=110aae14
DTITLE=Country and Western Nuggets CD 4
DYEAR=1900
DGENRE=
TTITLE0=James Sonny - Yo Yo
TTITLE1=Clement Jack - Whole Lotta Lookin'
TTITLE2=Western Johnny - Ten Years
TTITLE3=Holt Jimmie - Spellbound
TTITLE4=Elliott Lee - Cheater's Never Win
TTITLE5=Smith Carl - You're So Easy To Love
TTITLE6=Jones George - Candy Hearts
TTITLE7=Collins Tommy - Black Cat
TTITLE8=Humbird Johnnie - I Thought I'd Never See The Day
TTITLE9=Pierce Webb - Sitting Alone
TTITLE10=Williams Lawton - John And Mary Doe
TTITLE11=Reed Jerry - When I Found You
TTITLE12=Moneymaker Paul - I'm Tired
TTITLE13=Strickland Jimmy - My Dream Of A Lifetime
TTITLE14=Tillis Mel - This Heart
TTITLE15=Blair Cowboy - Top Of Your List
TTITLE16=Bacon Charles "Shorty" - Speakin' Of Angels
TTITLE17=Morgan George - Little Green Men
TTITLE18=Fuller Jerry - Poor Little Heart
TTITLE19=O'gwynn James - You Don't Want To Hold Me
EXTD=
EXTT0=
EXTT1=
EXTT2=
EXTT3=
EXTT4=
EXTT5=
EXTT6=
EXTT7=
EXTT8=
EXTT9=
EXTT10=
EXTT11=
EXTT12=
EXTT13=
EXTT14=
EXTT15=
EXTT16=
EXTT17=
EXTT18=
EXTT19=
PLAYORDER=
